<svg xmlns="http://www.w3.org/2000/svg" xmlns:xlink="http://www.w3.org/1999/xlink" width="245" height="74.613" viewBox="0 0 245 74.613">
  <defs>
    <rect id="marianne2-a" width="245.808" height="74.613"/>
    <rect id="marianne2-c" width="690.267" height="74.613"/>
  </defs>
  <g fill="none" fill-rule="evenodd">
    <mask id="marianne2-b" fill="#fff">
      <use xlink:href="#marianne2-a"/>
    </mask>
    <g mask="url(#marianne2-b)">
      <mask id="marianne2-d" fill="#fff">
        <use xlink:href="#marianne2-c"/>
      </mask>
      <g mask="url(#marianne2-d)">
        <rect width="244.558" height="74.613" fill="#FFF" fill-rule="nonzero"/>
        <path fill="#E2011C" fill-rule="nonzero" d="M139.945,74.613 L140.317,73.749 C140.946,72.185 141.596,70.992 142.539,69.681 C143.535,68.294 145.73,66.25 146.642,65.86 C147.764,65.379 149.157,65.21 150.884,65.345 C152.365,65.463 156.912,66.133 158.748,66.508 C160.146,66.79 162.193,66.817 163.155,66.564 C165.01,66.078 166.108,65.136 166.63,63.588 C167.031,62.399 167.027,61.314 166.62,60.596 C166.073,59.629 166.166,59.368 167.495,58.231 C168.15,57.656 168.687,57.133 168.689,57.068 C168.689,56.676 167.773,55.147 167.544,55.134 C167.396,55.134 167.113,55.004 166.911,54.86 L166.534,54.586 L167.315,54.22 C168.392,53.723 169.187,52.952 169.187,52.404 C169.187,52.169 168.958,51.594 168.675,51.123 C168.136,50.222 168.002,49.359 168.298,48.85 C168.487,48.51 168.837,48.367 170.507,47.935 C171.907,47.57 172.419,47.191 172.621,46.381 C172.782,45.688 172.701,45.244 172.244,44.408 C171.867,43.728 169.416,40.344 168.716,39.521 C167.759,38.411 166.588,36.49 166.251,35.458 C165.915,34.439 165.901,34.374 166.157,33.067 C166.682,30.284 166.372,27.985 164.878,23.503 C163.76,20.158 163.464,19.348 163.127,18.721 C162.494,17.598 162.575,17.336 163.868,16.383 C164.487,15.925 165.053,15.442 165.134,15.298 C165.524,14.645 165.08,13.378 164.352,13.025 C163.881,12.803 163.625,12.959 163.154,13.743 C162.79,14.344 162.642,14.449 162.265,14.449 C161.632,14.449 161.525,14.214 161.929,13.73 C162.386,13.155 162.36,13.064 161.619,12.973 C161.067,12.907 160.784,12.711 159.585,11.614 C157.996,10.15 156.919,9.471 154.792,8.583 C153.809,8.178 153.472,7.982 153.822,8.034 C154.132,8.073 155.209,8.151 156.232,8.204 C159.182,8.334 159.895,7.982 160.582,6.061 C161.04,4.754 161.269,4.153 160.191,3.239 L156.342,-7.99360578e-15 L244.555,-7.99360578e-15 L244.555,74.613 L139.945,74.613 Z"/>
        <path fill="#003189" fill-rule="nonzero" d="M64.722,74.613 C64.083,74.553 63.528,74.527 63.489,74.492 C63.421,74.432 64.144,74.012 67.456,72.192 C68.52,71.607 68.956,71.294 68.808,71.222 C68.687,71.164 67.761,71.073 66.747,71.018 C65.242,70.939 64.806,70.96 64.364,71.145 C64.064,71.269 62.872,71.594 61.714,71.868 C58.832,72.548 57.876,73.016 56.947,74.168 L56.597,74.612 L1.42108547e-14,74.612 L1.42108547e-14,1.42108547e-14 L112.315,1.42108547e-14 L110.139,1.28 C108.941,1.819 107.548,2.565 107.045,2.94 C105.337,4.207 103.036,7.097 102.462,8.695 C102.247,9.283 102.058,9.501 101.412,9.901 C100.415,10.51 99.23,11.67 98.247,12.992 C96.914,14.787 94.369,18.832 93.871,19.953 C93.09,21.694 93.157,23.02 94.302,28.221 C94.8,30.511 95.339,32.838 95.5,33.391 C95.662,33.944 95.837,34.881 95.891,35.472 C95.985,36.531 96.066,36.759 96.753,38.057 C96.941,38.412 97.089,38.814 97.089,38.953 C97.089,39.091 97.224,39.284 97.399,39.384 C97.574,39.485 97.709,39.717 97.709,39.924 C97.709,40.172 98.072,40.645 98.867,41.433 C100.685,43.236 102.004,44.926 102.004,45.461 C102.004,45.9 101.291,46.013 100.133,45.757 C98.786,45.457 97.682,44.811 95.985,43.322 C95.258,42.688 94.679,42.264 94.679,42.376 C94.679,42.488 95.164,43.078 95.77,43.683 C96.968,44.892 97.157,45.222 96.901,45.659 C96.672,46.044 96.12,46.156 95.366,45.969 C94.49,45.753 93.992,46.054 94.127,46.697 C94.208,47.102 94.194,47.141 93.938,47.063 C93.453,46.893 92.376,46.697 91.42,46.605 C90.531,46.527 90.464,46.488 89.939,45.821 C89.535,45.312 89.212,45.077 88.794,44.972 C87.219,44.58 83.287,43.953 80.661,43.692 C76.028,43.234 74.911,43.195 72.689,43.444 C70.979,43.626 70.521,43.744 69.591,44.162 C67.935,44.92 65.067,47.298 65.067,47.912 C65.067,48.199 65.7,48.108 66.413,47.703 C68.595,46.488 76.096,44.763 79.772,44.632 C81.59,44.567 81.496,44.646 79.301,45.011 C78.695,45.116 77.267,45.443 76.123,45.756 C74.978,46.07 72.998,46.54 71.733,46.814 C70.467,47.076 69.026,47.428 68.555,47.585 L67.679,47.873 L69.026,47.886 C75.921,47.951 83.758,49.924 86.963,52.393 C88.336,53.452 88.835,53.582 90.854,53.386 C93.628,53.125 97.21,51.936 98.786,50.747 C99.473,50.237 100.025,50.028 100.025,50.303 C100.025,50.773 99.123,53.295 98.732,53.909 C98.301,54.614 98.274,54.706 98.503,54.863 C98.638,54.954 98.719,55.072 98.665,55.111 C98.611,55.163 98.719,55.242 98.907,55.294 C99.432,55.451 99.298,55.594 98.463,55.777 C97.655,55.973 97.008,56.3 97.008,56.522 C97.008,56.6 97.116,56.666 97.251,56.666 C97.655,56.666 97.359,56.927 96.82,57.031 C96.456,57.11 96.389,57.162 96.551,57.254 C96.712,57.345 96.712,57.384 96.564,57.384 C96.456,57.384 96.362,57.528 96.362,57.711 C96.362,57.933 96.201,58.09 95.877,58.22 C95.083,58.547 95.298,58.717 96.389,58.625 C96.941,58.573 97.278,58.573 97.143,58.625 C97.008,58.665 96.12,59.03 95.164,59.435 C94.194,59.827 92.942,60.311 92.376,60.494 C91.73,60.703 91.326,60.912 91.285,61.069 C91.232,61.317 91.528,61.304 92.282,61.043 C92.417,60.99 92.538,61.016 92.538,61.082 C92.538,61.147 90.881,62.009 88.861,63.002 C86.828,63.995 84.943,65.014 84.647,65.263 C84.35,65.524 83.987,65.733 83.812,65.733 C83.65,65.733 83.435,65.903 83.327,66.099 C83.017,66.713 83.071,66.791 83.812,66.674 C84.902,66.504 85.414,66.517 85.482,66.713 C85.522,66.817 85.414,66.896 85.239,66.896 C85.064,66.896 84.849,66.987 84.741,67.105 C84.633,67.222 84.364,67.34 84.135,67.353 C83.852,67.392 83.596,67.562 83.381,67.863 C83.206,68.111 82.923,68.359 82.748,68.398 C82.573,68.437 82.819,68.451 83.3,68.411 C90.45,67.928 91.784,67.693 94.669,66.373 C97.128,65.25 99.679,63.564 101.497,61.892 C102.022,61.408 102.507,61.016 102.574,61.016 C102.82,61.016 102.686,61.813 102.322,62.532 C101.689,63.76 100.37,64.884 97.649,66.517 C96.276,67.34 94.795,68.124 94.356,68.242 C92.99,68.633 90.787,69.052 88.471,69.352 C80.939,70.332 78.056,71.077 75.201,72.788 C74.719,73.063 74.218,73.285 74.084,73.259 C73.949,73.246 73.586,73.415 73.289,73.651 C72.441,74.317 73.06,74.199 74.838,73.376 C76.669,72.527 77.518,72.396 76.077,73.18 C74.313,74.147 72.98,74.761 71.66,74.761 L64.637,74.761 L64.722,74.613 Z M55.366,66.291 C55.651,66.182 56.597,65.703 57.467,65.227 C58.338,64.752 59.371,64.229 59.765,64.068 L62.23,63.062 C64.245,62.242 67.205,61.468 67.374,61.717 C67.434,61.803 67.876,61.9 68.357,61.93 C69.026,61.971 69.143,62.011 68.868,62.099 C68.672,62.161 68.51,62.269 68.51,62.34 C68.51,62.599 69.998,62.523 70.624,62.229 C70.871,62.111 71.426,61.981 71.858,61.928 C72.396,61.863 72.644,61.772 72.644,61.628 C72.644,61.458 72.782,61.432 73.266,61.51 C73.936,61.615 75.372,61.367 79.245,60.491 C81.865,59.89 83.851,59.289 85.595,58.571 L86.856,58.048 L85.595,57.316 C82.518,55.539 79.427,54.442 72.644,52.73 C71.463,52.43 70.426,52.116 70.339,52.038 C70.234,51.946 70.285,51.933 70.498,51.999 C71.175,52.221 71.691,52.26 71.691,52.09 C71.691,51.881 71.179,51.711 70.172,51.581 C69.252,51.463 68.658,51.215 69.297,51.215 C70.286,51.215 68.586,50.64 66.681,50.352 C65.272,50.13 65.191,50.078 65.779,49.817 C66.291,49.595 66.843,48.745 66.699,48.406 C66.578,48.105 66.43,48.144 65.662,48.602 C64.194,49.49 62.848,50.953 62.094,52.469 C61.663,53.331 61.811,53.41 64.033,53.501 C65.864,53.567 65.891,53.58 65.42,53.802 C65.164,53.919 64.639,54.076 64.248,54.128 C62.955,54.298 62.242,54.86 62.888,55.187 C63.077,55.278 63.009,55.356 62.538,55.566 C62.013,55.788 61.986,55.84 62.228,55.957 C62.39,56.036 62.848,56.075 63.252,56.049 C63.817,56.01 64.073,56.062 64.342,56.271 L64.693,56.545 L63.992,56.937 C63.602,57.159 63.171,57.551 63.023,57.8 C62.875,58.048 62.349,58.649 61.838,59.132 C61.339,59.616 60.922,60.112 60.922,60.243 C60.922,60.361 60.195,61.001 59.293,61.641 C56.882,63.379 55.832,64.345 55.832,64.803 C55.832,65.051 55.697,65.26 55.455,65.404 C54.701,65.848 54.31,66.357 54.728,66.357 C54.822,66.357 55.132,66.266 55.414,66.162 L55.366,66.291 Z M73.967,64.613 C74.562,64.541 75.253,64.374 75.499,64.242 L75.949,64.002 L75.181,63.657 L74.414,63.312 L73.649,63.592 C73.227,63.746 72.644,63.953 72.353,64.053 C71.179,64.454 71.027,64.993 72.127,64.845 C72.545,64.792 73.37,64.688 73.967,64.622 L73.967,64.613 Z M47.044,58.083 C50.585,54.738 53.087,52.753 56.261,50.767 C57.339,50.092 58.101,49.702 58.139,49.804 C58.241,50.078 58.704,50 59.456,49.569 C60.32,49.072 60.752,48.563 61.831,46.812 C62.949,44.983 63.374,44.525 64.989,43.402 C65.756,42.879 66.861,42.082 67.467,41.651 C68.342,41.024 68.544,40.919 68.477,41.168 C68.423,41.35 68.463,41.481 68.584,41.481 C68.948,41.481 70.658,40.815 70.712,40.658 C70.806,40.397 69.082,40.135 67.803,40.214 C66.82,40.266 66.484,40.371 65.258,40.958 C62.403,42.356 60.33,43.859 56.384,47.426 C53.543,49.987 51.307,51.711 50.176,52.195 C49.812,52.351 49.53,52.691 49.085,53.501 C48.223,55.095 46.661,57.382 45.194,59.237 C43.807,60.988 43.51,61.589 44.588,60.465 C44.965,60.086 46.082,58.989 47.092,58.035 L47.044,58.083 Z M82.503,73.793 C86.758,72.993 87.229,72.933 90.215,72.816 C93.568,72.682 93.996,72.604 96.013,71.748 C96.66,71.474 96.913,71.424 97.003,71.552 C97.159,71.778 98.255,71.239 100.393,69.886 C101.268,69.334 102.503,68.626 103.14,68.315 C104.1,67.844 104.392,67.766 104.855,67.844 C105.348,67.927 105.495,67.87 106.124,67.374 C107.869,65.985 109.358,65.344 110.846,65.34 C111.291,65.34 111.443,65.397 111.443,65.568 C111.443,65.715 111.53,65.77 111.681,65.717 C112.126,65.561 111.924,65.73 110.784,66.501 C109.465,67.377 109.586,67.651 110.932,66.802 C112.225,65.992 112.239,65.992 112.239,66.318 C112.239,66.501 111.74,66.972 110.838,67.651 C108.778,69.193 107.324,70.473 105.115,72.681 L103.136,74.602 L77.969,74.602 L82.5,73.779 L82.503,73.793 Z M82.543,44.563 C82.697,44.527 82.947,44.527 83.099,44.563 C83.253,44.6 83.126,44.629 82.822,44.629 C82.515,44.629 82.391,44.6 82.543,44.563 Z"/>
        <path fill="#7F7F7F" fill-rule="nonzero" d="M156.719,39.105 C156.024,39.008 156.382,38.775 157.224,38.775 C158.067,38.775 158.511,38.483 158.511,37.929 C158.511,37.667 158.457,37.626 158.188,37.703 C157.959,37.768 157.797,37.713 157.636,37.516 C157.501,37.333 157.151,37.202 156.639,37.141 C155.737,37.032 154.269,36.242 154.525,36.004 C154.619,35.923 155.091,35.826 155.562,35.791 C156.397,35.728 156.451,35.7 156.612,35.24 C156.747,34.896 156.922,34.73 157.218,34.665 C157.461,34.615 157.824,34.426 158.04,34.243 C158.269,34.06 158.982,33.59 159.629,33.211 C160.733,32.557 161.42,31.865 161.177,31.643 C160.921,31.408 158.538,31.159 157.407,31.238 C156.1,31.329 153.852,31.761 152.922,32.087 C151.966,32.414 152.236,32.126 153.569,31.421 C155.36,30.454 158.807,29.566 160.706,29.566 C161.447,29.566 163.924,30.088 164.221,30.31 C164.8,30.741 164.167,32.257 163.103,33.015 L162.658,33.328 L163.386,34.034 L163.009,34.308 C162.807,34.452 162.524,34.583 162.389,34.583 C162.254,34.583 161.904,34.779 161.622,35.027 C161.191,35.406 161.137,35.523 161.258,35.824 C161.352,36.046 161.352,36.268 161.231,36.464 C161.123,36.647 161.096,37.052 161.164,37.522 C161.298,38.476 161.11,38.816 160.329,39.012 C159.763,39.155 157.663,39.182 156.747,39.051 L156.719,39.105 Z"/>
      </g>
    </g>
  </g>
</svg>